<svg xmlns="http://www.w3.org/2000/svg" data-name="Layer 1" viewBox="0 0 24 30" x="0px" y="0px"><title>rounded</title><path d="M17,4H7A3,3,0,0,0,4,7V17a3,3,0,0,0,3,3h7.17157a2.00018,2.00018,0,0,0,1.41425-.58582l3.82836-3.82843A1.99975,1.99975,0,0,0,20,14.17157V7A3,3,0,0,0,17,4ZM8,7.5h8A.75.75,0,0,1,16,9H8A.75.75,0,0,1,8,7.5Zm0,5A.75.75,0,0,1,8,11h8a.75.75,0,0,1,0,1.5Zm7,6.08582V16a1.00115,1.00115,0,0,1,1-1h2.58575Z"/><text x="0" y="39" fill="#000000" font-size="5px" font-weight="bold" font-family="'Helvetica Neue', Helvetica, Arial-Unicode, Arial, Sans-serif">Created by Sophia</text><text x="0" y="44" fill="#000000" font-size="5px" font-weight="bold" font-family="'Helvetica Neue', Helvetica, Arial-Unicode, Arial, Sans-serif">from the Noun Project</text></svg>